<svg width="1600" height="900" viewBox="0 0 1600 900" fill="none" xmlns="http://www.w3.org/2000/svg">
  <rect width="1600" height="900" fill="#F4EFE6"/>
  <rect width="1600" height="900" fill="url(#bg)"/>
  <circle cx="1290" cy="170" r="220" fill="#D7E7DC" fill-opacity="0.78"/>
  <circle cx="250" cy="760" r="240" fill="#E4EEE7" fill-opacity="0.88"/>
  <rect x="120" y="110" width="1360" height="680" rx="36" fill="#FFFDF8" fill-opacity="0.92"/>
  <rect x="170" y="166" width="520" height="500" rx="28" fill="#F6F1E8"/>
  <rect x="214" y="214" width="250" height="26" rx="13" fill="#20543A" fill-opacity="0.14"/>
  <rect x="214" y="266" width="352" height="64" rx="18" fill="#20543A"/>
  <rect x="214" y="352" width="392" height="24" rx="12" fill="#2D3E50" fill-opacity="0.14"/>
  <rect x="214" y="394" width="330" height="24" rx="12" fill="#2D3E50" fill-opacity="0.11"/>
  <rect x="214" y="436" width="280" height="24" rx="12" fill="#2D3E50" fill-opacity="0.08"/>
  <rect x="214" y="506" width="182" height="110" rx="20" fill="#E2EEE8"/>
  <path d="M252 588L289 553L332 570L366 529" stroke="#20543A" stroke-width="12" stroke-linecap="round" stroke-linejoin="round"/>
  <circle cx="252" cy="588" r="10" fill="#20543A"/>
  <circle cx="289" cy="553" r="10" fill="#20543A"/>
  <circle cx="332" cy="570" r="10" fill="#20543A"/>
  <circle cx="366" cy="529" r="10" fill="#20543A"/>
  <rect x="426" y="506" width="220" height="110" rx="20" fill="#EEF4F1"/>
  <rect x="458" y="579" width="26" height="14" rx="7" fill="#5F7F6C"/>
  <rect x="496" y="549" width="26" height="44" rx="9" fill="#20543A"/>
  <rect x="534" y="526" width="26" height="67" rx="9" fill="#7DA18A"/>
  <rect x="572" y="494" width="26" height="99" rx="9" fill="#2D3E50"/>
  <g filter="url(#shadow)">
    <rect x="760" y="176" width="562" height="548" rx="34" fill="#FFFFFF"/>
  </g>
  <rect x="808" y="232" width="224" height="20" rx="10" fill="#20543A" fill-opacity="0.12"/>
  <rect x="808" y="274" width="378" height="78" rx="22" fill="#2D3E50"/>
  <rect x="808" y="382" width="442" height="18" rx="9" fill="#2D3E50" fill-opacity="0.14"/>
  <rect x="808" y="416" width="396" height="18" rx="9" fill="#2D3E50" fill-opacity="0.1"/>
  <rect x="808" y="450" width="354" height="18" rx="9" fill="#2D3E50" fill-opacity="0.08"/>
  <rect x="808" y="516" width="458" height="150" rx="24" fill="#F5F8F6"/>
  <path d="M872 620C910 560 950 548 991 572C1035 598 1072 607 1115 557C1155 510 1198 491 1240 516" stroke="#20543A" stroke-width="14" stroke-linecap="round"/>
  <path d="M873 619C896 597 919 585 942 584C969 583 992 597 1019 609C1044 620 1069 624 1095 616C1139 603 1176 552 1212 526C1224 518 1237 512 1249 510" stroke="#D4A65F" stroke-width="8" stroke-linecap="round" stroke-dasharray="1 18"/>
  <circle cx="1008" cy="579" r="18" fill="#D4A65F"/>
  <circle cx="1008" cy="579" r="8" fill="#FFFDF8"/>
  <rect x="808" y="720" width="178" height="20" rx="10" fill="#20543A" fill-opacity="0.14"/>
  <rect x="171" y="714" width="188" height="20" rx="10" fill="#20543A" fill-opacity="0.14"/>
  <defs>
    <linearGradient id="bg" x1="233" y1="58" x2="1375" y2="850" gradientUnits="userSpaceOnUse">
      <stop stop-color="#F7F3EA"/>
      <stop offset="1" stop-color="#E8F0EB"/>
    </linearGradient>
    <filter id="shadow" x="728" y="150" width="626" height="612" filterUnits="userSpaceOnUse" color-interpolation-filters="sRGB">
      <feFlood flood-opacity="0" result="BackgroundImageFix"/>
      <feColorMatrix in="SourceAlpha" type="matrix" values="0 0 0 0 0 0 0 0 0 0 0 0 0 0 0 0 0 0 127 0" result="hardAlpha"/>
      <feOffset dy="6"/>
      <feGaussianBlur stdDeviation="16"/>
      <feComposite in2="hardAlpha" operator="out"/>
      <feColorMatrix type="matrix" values="0 0 0 0 0.105882 0 0 0 0 0.168627 0 0 0 0 0.137255 0 0 0 0.08 0"/>
      <feBlend mode="normal" in2="BackgroundImageFix" result="effect1_dropShadow_1_1"/>
      <feBlend mode="normal" in="SourceGraphic" in2="effect1_dropShadow_1_1" result="shape"/>
    </filter>
  </defs>
</svg>
