<svg width="1600" height="900" viewBox="0 0 1600 900" fill="none" xmlns="http://www.w3.org/2000/svg">
  <rect width="1600" height="900" fill="#F4EFE5"/>
  <rect width="1600" height="900" fill="url(#bg)"/>
  <circle cx="1308" cy="170" r="162" fill="#DCE6D9"/>
  <circle cx="232" cy="748" r="214" fill="#E7D7C7" fill-opacity="0.84"/>
  <rect x="108" y="96" width="1384" height="708" rx="42" fill="#FFFDF8" fill-opacity="0.9"/>
  <rect x="170" y="144" width="650" height="610" rx="34" fill="#FAF5EC"/>
  <rect x="220" y="204" width="188" height="24" rx="12" fill="#9D6231" fill-opacity="0.18"/>
  <rect x="220" y="252" width="434" height="88" rx="24" fill="#24323C"/>
  <rect x="220" y="376" width="494" height="18" rx="9" fill="#24323C" fill-opacity="0.16"/>
  <rect x="220" y="410" width="452" height="18" rx="9" fill="#24323C" fill-opacity="0.11"/>
  <rect x="220" y="444" width="332" height="18" rx="9" fill="#24323C" fill-opacity="0.08"/>
  <rect x="220" y="514" width="548" height="196" rx="30" fill="#FFFCF7"/>
  <rect x="266" y="560" width="178" height="24" rx="12" fill="#C99867" fill-opacity="0.26"/>
  <rect x="266" y="610" width="250" height="14" rx="7" fill="#72808B" fill-opacity="0.74"/>
  <rect x="266" y="640" width="218" height="14" rx="7" fill="#72808B" fill-opacity="0.5"/>
  <rect x="548" y="554" width="172" height="112" rx="26" fill="#DCE6D9"/>
  <path d="M580 634L612 602L642 618L688 572" stroke="#325740" stroke-width="12" stroke-linecap="round" stroke-linejoin="round"/>
  <circle cx="580" cy="634" r="8" fill="#325740"/>
  <circle cx="612" cy="602" r="8" fill="#325740"/>
  <circle cx="642" cy="618" r="8" fill="#325740"/>
  <circle cx="688" cy="572" r="8" fill="#325740"/>
  <rect x="878" y="154" width="556" height="232" rx="34" fill="#24323C"/>
  <rect x="924" y="210" width="198" height="20" rx="10" fill="#FFFFFF" fill-opacity="0.18"/>
  <rect x="924" y="254" width="248" height="78" rx="22" fill="#FFFFFF"/>
  <rect x="1202" y="254" width="186" height="78" rx="22" fill="#C99867"/>
  <path d="M1242 310H1346" stroke="#FFF9F0" stroke-width="12" stroke-linecap="round"/>
  <path d="M1320 284L1346 310L1320 336" stroke="#FFF9F0" stroke-width="12" stroke-linecap="round" stroke-linejoin="round"/>
  <rect x="878" y="438" width="556" height="242" rx="34" fill="#FFF8ED"/>
  <rect x="924" y="492" width="198" height="20" rx="10" fill="#9D6231" fill-opacity="0.18"/>
  <rect x="924" y="536" width="406" height="16" rx="8" fill="#24323C" fill-opacity="0.16"/>
  <rect x="924" y="566" width="360" height="16" rx="8" fill="#24323C" fill-opacity="0.11"/>
  <rect x="924" y="620" width="466" height="20" rx="10" fill="#DCE6D9"/>
  <rect x="924" y="656" width="402" height="20" rx="10" fill="#DCE6D9" fill-opacity="0.72"/>
  <defs>
    <linearGradient id="bg" x1="132" y1="82" x2="1460" y2="830" gradientUnits="userSpaceOnUse">
      <stop stop-color="#F9F5EE"/>
      <stop offset="1" stop-color="#EBE0D1"/>
    </linearGradient>
  </defs>
</svg>
